<svg height="512pt" viewBox="0 0 512 512" width="512pt" xmlns="http://www.w3.org/2000/svg" xmlns:xlink="http://www.w3.org/1999/xlink"><linearGradient id="a" gradientTransform="matrix(1 0 0 -1 0 -10886)" gradientUnits="userSpaceOnUse" x1="0" x2="512" y1="-11142" y2="-11142"><stop offset="0" stop-color="#00f38d"/><stop offset="1" stop-color="#009eff"/></linearGradient><path d="m512 256c0 141.386719-114.613281 256-256 256s-256-114.613281-256-256 114.613281-256 256-256 256 114.613281 256 256zm0 0" fill="url(#a)"/><g fill="#fff"><path d="m393.5 290.757812v91.894532c0 5.980468-4.867188 10.847656-10.847656 10.847656h-253.304688c-5.980468 0-10.847656-4.867188-10.847656-10.847656v-91.894532h-30v91.894532c0 22.523437 18.324219 40.847656 40.847656 40.847656h253.304688c22.523437 0 40.847656-18.324219 40.847656-40.847656v-91.894532zm0 0"/><path d="m339.246094 261.167969-21.210938-21.210938-47.035156 47.03125v-198.488281h-30v198.488281l-47.035156-47.03125-21.210938 21.210938 83.246094 83.25zm0 0"/></g></svg>